<svg xmlns="http://www.w3.org/2000/svg" fill="none" viewBox="0 0 24 24" id="Drag-Pan-Fill--Streamline-Rounded-Fill-Material" height="24" width="24">
  <desc>
    Drag Pan Fill Streamline Icon: https://streamlinehq.com
  </desc>
  <path fill="#000000" d="M11.25 12.75005H4.94999L6.5 14.30005c0.15 0.15215 0.225 0.3361 0.225 0.55175 0 0.2155 -0.07585 0.39825 -0.2275 0.54825 -0.15185 0.15 -0.3352 0.225 -0.55 0.225 -0.215 0 -0.3975 -0.075 -0.5475 -0.225l-2.87501 -2.875c-0.083335 -0.08335 -0.14167 -0.16775 -0.175 -0.25325 -0.033335 -0.08565 -0.05 -0.17735 -0.05 -0.275 0 -0.09785 0.016665 -0.1884 0.05 -0.27175 0.03333 -0.08335 0.091665 -0.16665 0.175 -0.25l2.90001 -2.9c0.1555 -0.15 0.34025 -0.225 0.55425 -0.225 0.2138 0 0.39575 0.075 0.54575 0.225 0.15 0.15 0.225 0.3319 0.225 0.54575 0 0.214 -0.075 0.39875 -0.225 0.55425l-1.57501 1.575H11.25v-6.3l-1.55 1.55c-0.15 0.15 -0.33335 0.225 -0.55 0.225 -0.2167 0 -0.4 -0.075 -0.55 -0.225 -0.15 -0.15 -0.225 -0.3319 -0.225 -0.54575 0 -0.214 0.075 -0.39875 0.225 -0.55425l2.875 -2.875c0.0833 -0.083335 0.16775 -0.14167 0.25325 -0.175 0.08565 -0.033335 0.1773 -0.05 0.275 -0.05 0.0978 0 0.1884 0.016665 0.27175 0.05 0.0833 0.03333 0.16665 0.091665 0.25 0.175l2.875 2.875c0.15 0.15 0.225 0.33335 0.225 0.55 0 0.21665 -0.075 0.4 -0.225 0.55 -0.15 0.15 -0.33195 0.225 -0.54575 0.225 -0.214 0 -0.39875 -0.075 -0.55425 -0.225l-1.55 -1.55v6.3h6.3l-1.55 -1.55c-0.15 -0.15215 -0.225 -0.3361 -0.225 -0.55175 0 -0.2155 0.0758 -0.39825 0.2275 -0.54825 0.1518 -0.15 0.33515 -0.225 0.55 -0.225 0.215 0 0.3975 0.075 0.5475 0.225l2.875 2.875c0.0833 0.08335 0.14165 0.16775 0.175 0.25325 0.0333 0.08565 0.05 0.17735 0.05 0.275 0 0.09785 -0.0167 0.1884 -0.05 0.27175 -0.03335 0.08335 -0.0917 0.16665 -0.175 0.25l-2.875 2.875c-0.15 0.15 -0.33335 0.225 -0.55 0.225 -0.2167 0 -0.4 -0.075 -0.55 -0.225 -0.15 -0.15 -0.225 -0.3319 -0.225 -0.54575 0 -0.214 0.075 -0.39875 0.225 -0.55425l1.55 -1.55H12.75v6.3l1.675 -1.675c0.15215 -0.15 0.33605 -0.225 0.55175 -0.225 0.2155 0 0.39825 0.07585 0.54825 0.2275 0.15 0.15185 0.225 0.33515 0.225 0.55 0 0.215 -0.075 0.3975 -0.225 0.5475l-3 3c-0.08335 0.08335 -0.16775 0.14165 -0.25325 0.175 -0.0857 0.03335 -0.17735 0.05 -0.275 0.05 -0.09785 0 -0.18845 -0.01665 -0.27175 -0.05 -0.08335 -0.03335 -0.1667 -0.09165 -0.25 -0.175l-3 -3c-0.15 -0.15 -0.225 -0.33335 -0.225 -0.55 0 -0.21665 0.075 -0.4 0.225 -0.55 0.15 -0.15 0.3319 -0.225 0.54575 -0.225 0.214 0 0.39875 0.075 0.55425 0.225l1.675 1.675v-6.3Z" stroke-width="0.5"></path>
</svg>